#!OML:ASF F:\VICON\USERDATA\INSTALL\rory3\rory3.ASF
:FULLY-SPECIFIED
:DEGREES
278
root -2.20694 17.9399 14.1988 377.774 -33.2262 365.767
lowerback 3.0895 3.64786 -6.92354
upperback -9.87241 4.50256 2.3946
thorax -13.3284 3.01207 5.8456
lowerneck -10.7845 -15.6897 -12.0131
upperneck 22.5332 -24.4262 15.6804
head 12.8347 -10.5913 3.65429
rclavicle -7.92716e-014 3.18055e-015
rhumerus 223.395 -175.64 85.2178
rradius 14.8222
rwrist 22.4409
rhand -10.8122 10.8664
rfingers 7.12502
rthumb 15.2014 -18.5552
lclavicle -7.92716e-014 3.18055e-015
lhumerus 30.9596 14.098 16.4136
lradius 27.883
lwrist -7.91796
lhand -17.5002 28.2083
lfingers 7.12502
lthumb 8.75269 58.0068
rfemur -78.8674 6.20698 23.0129
rtibia 25.053
rfoot 6.43383 -41.757
rtoes 45.2507
lfemur -22.5066 -10.8644 -21.506
ltibia 20.5072
lfoot -1.58979 23.185
ltoes -25.4009
279
root -2.20827 18.0272 14.2882 377.602 -35.1005 365.022
lowerback 3.92354 3.85681 -6.24475
upperback -9.80922 4.87326 3.00149
thorax -13.8333 3.17281 6.03888
lowerneck -10.6163 -15.5068 -12.2113
upperneck 22.9892 -23.9447 14.7768
head 12.7766 -10.4804 3.48088
rclavicle 1.36298e-013 3.02153e-014
rhumerus 224.732 -166.074 75.6711
rradius 11.8698
rwrist 37.0777
rhand -12.6682 12.0699
rfingers 7.12502
rthumb 13.4131 -17.4783
lclavicle 1.36298e-013 3.02153e-014
lhumerus 30.8126 13.013 18.143
lradius 27.8494
lwrist -9.16611
lhand -18.3099 28.1783
lfingers 7.12502
lthumb 7.97128 58.008
rfemur -78.2036 10.0879 12.5086
rtibia 24.8507
rfoot -32.5629 -33.5943
rtoes 59.1978
lfemur -23.3858 -9.97321 -21.3445
ltibia 23.3399
lfoot 0.250789 23.6337
ltoes -25.8298
280
root -2.20488 18.1112 14.3792 377.163 -36.8385 364.275
lowerback 5.6737 3.77262 -5.91635
upperback -10.1127 4.84477 4.13903
thorax -15.427 3.26765 7.07684
lowerneck -10.9662 -14.9581 -12.8635
upperneck 25.0557 -22.7572 12.7432
head 13.2566 -10.1311 3.07146
rclavicle 5.45912e-014 3.81667e-014
rhumerus 228.597 -152.779 60.7428
rradius 9.48438
rwrist 58.0102
rhand -14.7369 13.3667
rfingers 7.12502
rthumb 11.4185 -16.3024
lclavicle 5.45912e-014 3.81667e-014
lhumerus 25.8704 2.7213 12.47
lradius 31.0955
lwrist 0.853938
lhand -21.0171 30.5976
lfingers 7.12502
lthumb 5.3578 60.5099
rfemur -76.0245 10.1137 11.1265
rtibia 24.9887
rfoot -40.55 -21.3218
rtoes 61.6448
lfemur -24.1977 -8.76334 -21.3457
ltibia 26.3851
lfoot 2.97771 23.9164
ltoes -26.5538
281
root -2.20298 18.1863 14.4782 376.612 -38.6615 363.698
lowerback 6.79644 3.97856 -5.15536
upperback -9.84992 5.25865 4.71552
thorax -15.8912 3.42437 7.17404
lowerneck -10.4781 -14.686 -13.4912
upperneck 25.207 -22.1395 12.2292
head 13.1266 -9.99887 3.1405
rclavicle 2.34317e-014 -5.725e-014
rhumerus 239.35 -140.563 41.4787
rradius 8.05579
rwrist 78.4919
rhand -16.7126 13.4136
rfingers 7.12502
rthumb 9.51261 -16.3516
lclavicle 2.34317e-014 -5.725e-014
lhumerus 27.4496 7.54989 19.3487
lradius 28.4424
lwrist -7.19711
lhand -20.7677 28.001
lfingers 7.12502
lthumb 5.59866 57.907
rfemur -74.0129 10.3505 9.4969
rtibia 25.4154
rfoot -42.8373 -16.996
rtoes 62.2086
lfemur -25.1809 -7.3082 -21.5788
ltibia 29.6045
lfoot 6.39159 24.046
ltoes -25.6544
282
root -2.20368 18.2631 14.5839 376.167 -40.6523 362.996
lowerback 7.27128 4.32179 -3.95754
upperback -8.65947 5.84399 4.58073
thorax -14.6502 3.4817 6.17521
lowerneck -11.7057 -14.8354 -11.8422
upperneck 24.2762 -22.3285 12.1232
head 12.7858 -9.90893 2.75098
rclavicle -1.39696e-013 -3.97569e-014
rhumerus 259.554 -133.251 13.6751
rradius 7.2684
rwrist 98.2839
rhand -18.9387 13.7239
rfingers 7.12502
rthumb 7.36433 -16.1279
lclavicle -1.39696e-013 -3.97569e-014
lhumerus 28.8857 8.47824 21.1777
lradius 28.2442
lwrist -7.88597
lhand -20.8271 27.2143
lfingers 7.12502
lthumb 5.54133 57.1219
rfemur -71.9297 11.0023 7.87761
rtibia 25.9973
rfoot -44.6958 -13.848
rtoes 62.2293
lfemur -26.3489 -6.02595 -21.5906
ltibia 32.9542
lfoot 8.97531 24.3423
ltoes -19.7903
283
root -2.20855 18.3306 14.6928 375.825 -42.4636 362.141
lowerback 8.39288 4.83493 -2.5566
upperback -8.67274 6.76078 4.75232
thorax -15.3564 3.77395 5.3043
lowerneck -8.80904 -14.7938 -12.8833
upperneck 22.7088 -22.3105 12.8977
head 11.8422 -10.1328 3.39809
rclavicle -2.47363e-014 -3.81667e-014
rhumerus 283.953 -132.699 -17.3138
rradius 7.41996
rwrist 117.964
rhand -20.0864 13.3219
rfingers 7.12502
rthumb 6.25636 -16.5657
lclavicle -2.47363e-014 -3.81667e-014
lhumerus 29.4251 6.62793 23.6844
lradius 28.1707
lwrist -8.15475
lhand -20.1234 26.0466
lfingers 7.12502
lthumb 6.22068 55.9352
rfemur -69.7553 11.7727 6.46243
rtibia 26.5512
rfoot -46.144 -11.87
rtoes 62.194
lfemur -27.6028 -5.03913 -21.3209
ltibia 36.2608
lfoot 11.5214 23.7182
ltoes -13.7969
284
root -2.21763 18.3753 14.7996 375.658 -44.2279 361.161
lowerback 9.1592 4.93237 -1.29398
upperback -7.88169 7.0803 4.97321
thorax -14.7739 3.77569 4.7268
lowerneck -9.89409 -14.6451 -12.0259
upperneck 22.8971 -21.9458 12.1935
head 11.8606 -9.90593 3.02773
rclavicle -5.97845e-014 1.74931e-014
rhumerus 300.809 -142.335 -42.8236
rradius 10.4859
rwrist 138.032
rhand -19.9991 13.7658
rfingers 7.12502
rthumb 6.34067 -16.1193
lclavicle -5.97845e-014 1.74931e-014
lhumerus 29.5269 6.06712 24.8024
lradius 28.225
lwrist -8.11697
lhand -19.5188 25.2517
lfingers 7.12502
lthumb 6.80439 55.1224
rfemur -67.593 12.7121 5.18361
rtibia 27.0083
rfoot -47.4401 -10.3769
rtoes 62.1402
lfemur -28.9017 -4.39345 -20.864
ltibia 39.2036
lfoot 15.1275 21.3303
ltoes -13.2755
285
root -2.23013 18.4048 14.9153 375.693 -46.0696 360.082
lowerback 10.2548 5.07897 -0.575192
upperback -7.31489 7.44849 5.47846
thorax -14.8088 3.89122 4.73757
lowerneck -11.531 -14.5003 -11.1725
upperneck 23.8184 -21.5563 11.0292
head 12.2128 -9.66433 2.45411
rclavicle -1.00386e-014 -6.52014e-014
rhumerus 300.042 -140.302 -39.9568
rradius 9.80129
rwrist 132.949
rhand -20.714 11.4072
rfingers 7.12502
rthumb 5.65045 -18.4975
lclavicle -1.00386e-014 -6.52014e-014
lhumerus 29.1267 5.27241 26.0675
lradius 28.2613
lwrist -8.02434
lhand -18.5508 24.571
lfingers 7.12502
lthumb 7.73873 54.4094
rfemur -65.4882 13.8927 3.96619
rtibia 27.3743
rfoot -48.8334 -9.07071
rtoes 62.1411
lfemur -30.2572 -4.27869 -20.1441
ltibia 41.4044
lfoot 15.198 16.6242
ltoes -15.9202
286
root -2.24483 18.4357 15.0505 376.133 -47.8105 358.615
lowerback 11.0997 5.0051 0.971726
upperback -7.09192 7.6611 5.89052
thorax -14.9409 3.84342 4.23279
lowerneck -11.2004 -13.9957 -11.4788
upperneck 24.2342 -20.8413 10.9218
head 12.2398 -9.39682 2.62298
rclavicle 8.77634e-014 5.08889e-014
rhumerus 299.367 -137.594 -37.4883
rradius 9.64178
rwrist 127.954
rhand -20.366 10.7067
rfingers 7.12502
rthumb 5.98643 -19.1887
lclavicle 8.77634e-014 5.08889e-014
lhumerus 28.2798 4.68816 27.5443
lradius 28.4609
lwrist -8.68912
lhand -16.2385 23.2821
lfingers 7.12502
lthumb 9.97008 53.026
rfemur -63.2523 15.263 3.02608
rtibia 27.6524
rfoot -49.9904 -9.0083
rtoes 62.3025
lfemur -31.5298 -4.98708 -18.9381
ltibia 42.6067
lfoot 16.1558 9.98427
ltoes -28.0332
287
root -2.26716 18.4433 15.1961 376.623 -49.561 357.48
lowerback 11.7017 4.88629 2.28416
upperback -7.01383 7.77109 6.12904
thorax -15.0886 3.76163 3.70675
lowerneck -10.693 -13.5237 -11.6831
upperneck 24.3469 -20.2154 10.9847
head 12.1323 -9.16261 2.83417
rclavicle -5.58585e-014 -3.18055e-015
rhumerus 298.875 -134.442 -35.3176
rradius 9.24764
rwrist 122.926
rhand -19.3068 10.9575
rfingers 7.12502
rthumb 7.00903 -18.9064
lclavicle -5.58585e-014 -3.18055e-015
lhumerus 27.6035 5.33226 29.9526
lradius 28.5192
lwrist -11.1936
lhand -13.2595 21.2064
lfingers 7.12502
lthumb 12.8431 50.7913
rfemur -61.2344 16.7098 1.79708
rtibia 27.8454
rfoot -51.565 -7.45688
rtoes 62.4754
lfemur -32.6817 -6.17459 -17.9573
ltibia 42.6442
lfoot 13.6096 7.84561
ltoes -29.8647
